<?xml version="1.0" encoding="UTF-8" standalone="no"?>
<svg
   xmlns:dc="http://purl.org/dc/elements/1.1/"
   xmlns:cc="http://creativecommons.org/ns#"
   xmlns:rdf="http://www.w3.org/1999/02/22-rdf-syntax-ns#"
   xmlns:svg="http://www.w3.org/2000/svg"
   xmlns="http://www.w3.org/2000/svg"
   xmlns:sodipodi="http://sodipodi.sourceforge.net/DTD/sodipodi-0.dtd"
   xmlns:inkscape="http://www.inkscape.org/namespaces/inkscape"
   viewBox="0 0 299.32903 403.1676"
   id="svg2"
   height="403.1676"
   width="299.32904"
   version="1.1"
   inkscape:version="0.48.4 r9939"
   sodipodi:docname="Логотип ВОСТОК-СЕРВИС.svg">
  <sodipodi:namedview
     pagecolor="#ffffff"
     bordercolor="#666666"
     borderopacity="1"
     objecttolerance="10"
     gridtolerance="10"
     guidetolerance="10"
     inkscape:pageopacity="0"
     inkscape:pageshadow="2"
     inkscape:window-width="1855"
     inkscape:window-height="1056"
     id="namedview3055"
     showgrid="false"
     fit-margin-top="0"
     fit-margin-left="0"
     fit-margin-right="0"
     fit-margin-bottom="0"
     inkscape:zoom="0.68119711"
     inkscape:cx="408.92365"
     inkscape:cy="165.43012"
     inkscape:window-x="65"
     inkscape:window-y="24"
     inkscape:window-maximized="1"
     inkscape:current-layer="svg2" />
  <metadata
     id="metadata16">
    <rdf:RDF>
      <cc:Work
         rdf:about="">
        <dc:format>image/svg+xml</dc:format>
        <dc:type
           rdf:resource="http://purl.org/dc/dcmitype/StillImage" />
      </cc:Work>
    </rdf:RDF>
  </metadata>
  <defs
     id="defs14" />
  <path
     id="path10"
     style="fill:#1b1918;fill-rule:evenodd"
     d="m 115.83348,253.0668 c 79.146,-38.9506 8.8897,-77.3107 -24.011803,-59.6721 l 24.011803,59.6721 z M 18.236277,0 284.31168,0 l 0,162.2704 c 6.6337,3.9205 11.5477,9.3724 13.7165,16.9927 4.0547,14.2469 -1.6031,26.4158 -13.7165,37.7149 l 0,186.1896 -266.075403,0 0,-293.7847 c -5.6155,1.8506 -11.2345004,3.6924 -16.8238004,5.6135 L -2.3371409e-5,96.6344 C 6.1920766,96.7099 12.256877,96.3871 18.236277,95.7558 l 0,-95.7558 z m 8.6653,106.5055 c 6.6158,-2.2235 13.204,-4.5234 19.7095,-7.0462 37.5711,-14.5708 76.226603,-20.1149 100.663003,-19.7709 24.4362,0.3441 39.8649,10.7892 26.9509,23.4633 -12.914,12.6739 -43.371,40.9162 -24.86,61.2598 18.511,20.3437 102.2454,1.4992 85.1025,41.6882 -17.1427,40.1892 -203.574603,89.587 -202.262703,149.0142 l 53.6569,0 c 3.6272,-20.7449 34.510803,-51.2913 75.423303,-71.8421 44.2419,-22.2239 88.3119,-39.7139 114.3614,-59.1167 l 0,170.3471 -248.744803,0 0,-287.9967 z m 248.744803,51.7712 c -32.7958,-11.6716 -88.8149,-0.7821 -94.8434,-12.5554 -7.8517,-12.5624 81.2283,-82.2821 -7.0745,-82.2821 -57.9685,0 -100.338903,23.9864 -146.826903,31.1849 l 0,-85.9588 248.744803,0 0,149.6114 z m -193.997803,9.8384 c 68.063103,-37.1476 4.6404,-73.7649 -21.8151,-54.2131 l 21.8151,54.2131 z"
     inkscape:connector-curvature="0" />
</svg>
